<svg id="eKtIcUqlnfk1" xmlns="http://www.w3.org/2000/svg" xmlns:xlink="http://www.w3.org/1999/xlink" viewBox="0 0 311 431" shape-rendering="geometricPrecision" text-rendering="geometricPrecision"><g transform="translate(-150.699997-180.342926)"><path d="M204.5,251.5v0Z" fill="#34275d"/><path d="M419,319l-9.7-80.7c-1-8.6-5.3-16.4-12.1-21.7-17.4-13.4-38.2-24.9-65.6-32.7-15.5-4.4-31.8-4.7-47.4-1-26.8,6.3-50.5,16.2-70.9,29.9-4.5,3-7.5,7.9-8.2,13.4L194,310.6c15.8-6.1,30.9-6,45.6-2.4-18.3,2.8-34.4,7.7-48.6,14.5-16.8,19.3-30.9,38.3-40.3,56.6c7.1,8.1,12.4,16.2,15.1,24.3c46.5-9.3,93.4-14.3,140.5-14.2c3,0,6,0,9,.1c42.6.6,85.5,5.3,128.7,14.4l17.5-23.7c-12.3-23-26-43.9-42.5-61.2ZM316.6,298.8L282.5,244l22.9-.8-10-46.6l35.8,58.9-23.9,2l9.3,41.3Z" fill="#34275d"/><polygon points="306.2,389 309.4,442.3 296.7,442.3 296.7,449.9 319.3,449.9 315.2,389.2" fill="#34275d"/><polygon points="173.9,423.5 202.1,423.2 206.1,485.8 229.4,505.6 220.9,518.9 195.7,491.4 194.5,431.9" fill="#34275d"/><polygon points="439.1,423.5 411,423.2 406.9,485.8 383.7,505.6 392.1,518.9 417.3,491.4 418.5,431.9" fill="#34275d"/><polygon points="253.7,480.6 227,526.5 304.8,611.7 384.6,526.2 357,481.5 363.1,519.8 306.8,562.1 249.4,520.1" fill="#34275d"/></g></svg>